<?xml version="1.0" encoding="utf-8"?>
<!-- Generator: Adobe Illustrator 16.0.0, SVG Export Plug-In . SVG Version: 6.00 Build 0)  -->
<!DOCTYPE svg PUBLIC "-//W3C//DTD SVG 1.1//EN" "http://www.w3.org/Graphics/SVG/1.1/DTD/svg11.dtd">
<svg version="1.1" id="Layer_1" xmlns="http://www.w3.org/2000/svg" xmlns:xlink="http://www.w3.org/1999/xlink" x="0px" y="0px"
	 width="16px" height="16px" viewBox="0 0 16 16" enable-background="new 0 0 16 16" xml:space="preserve">
<g id="XMLID_27_">
	
		<linearGradient id="XMLID_2_" gradientUnits="userSpaceOnUse" x1="-171.7632" y1="114.3232" x2="-171.7632" y2="106.8955" gradientTransform="matrix(1.1099 0.3462 0.3462 -1.1099 159.04 189.1641)">
		<stop  offset="0" style="stop-color:#FEDA00"/>
		<stop  offset="1" style="stop-color:#E2A025"/>
	</linearGradient>
	<circle id="XMLID_496_" fill="url(#XMLID_2_)" cx="6.7" cy="6.931" r="4.317"/>
	
		<linearGradient id="XMLID_3_" gradientUnits="userSpaceOnUse" x1="-168.3091" y1="114.8086" x2="-168.3091" y2="113.2919" gradientTransform="matrix(1.1099 0.3462 0.3462 -1.1099 159.04 189.1641)">
		<stop  offset="0" style="stop-color:#FEDA00"/>
		<stop  offset="1" style="stop-color:#E7A423"/>
	</linearGradient>
	<path id="XMLID_495_" fill="url(#XMLID_3_)" d="M12.642,3.829c-0.131-0.253-0.445-0.35-0.697-0.218l-0.916,0.481
		c-0.253,0.131-0.349,0.445-0.218,0.698c0.132,0.252,0.445,0.35,0.698,0.218l0.916-0.482C12.677,4.394,12.773,4.081,12.642,3.829z"
		/>
	
		<linearGradient id="XMLID_4_" gradientUnits="userSpaceOnUse" x1="-175.2163" y1="107.9004" x2="-175.2163" y2="106.3847" gradientTransform="matrix(1.1099 0.3462 0.3462 -1.1099 159.04 189.1641)">
		<stop  offset="0" style="stop-color:#FEDA00"/>
		<stop  offset="1" style="stop-color:#E7A423"/>
	</linearGradient>
	<path id="XMLID_494_" fill="url(#XMLID_4_)" d="M2.585,9.103C2.454,8.849,2.139,8.754,1.887,8.884L0.97,9.366
		c-0.252,0.132-0.348,0.446-0.217,0.698c0.132,0.252,0.445,0.349,0.699,0.217l0.916-0.48C2.616,9.67,2.717,9.355,2.585,9.103z"/>
	
		<linearGradient id="XMLID_5_" gradientUnits="userSpaceOnUse" x1="-166.8765" y1="111.04" x2="-166.8765" y2="110.1515" gradientTransform="matrix(1.1099 0.3462 0.3462 -1.1099 159.04 189.1641)">
		<stop  offset="0" style="stop-color:#FEDA00"/>
		<stop  offset="1" style="stop-color:#E7A423"/>
	</linearGradient>
	<path id="XMLID_492_" fill="url(#XMLID_5_)" d="M13.106,8.945c0.088-0.274-0.065-0.562-0.337-0.647l-0.987-0.309
		c-0.273-0.086-0.563,0.065-0.647,0.339C11.049,8.6,11.2,8.891,11.474,8.977l0.988,0.309C12.734,9.371,13.023,9.22,13.106,8.945z"/>
	
		<linearGradient id="XMLID_6_" gradientUnits="userSpaceOnUse" x1="-176.6465" y1="111.04" x2="-176.6465" y2="110.1514" gradientTransform="matrix(1.1099 0.3462 0.3462 -1.1099 159.04 189.1641)">
		<stop  offset="0" style="stop-color:#FEDA00"/>
		<stop  offset="1" style="stop-color:#E7A423"/>
	</linearGradient>
	<path id="XMLID_491_" fill="url(#XMLID_6_)" d="M2.261,5.564c0.086-0.273-0.066-0.561-0.339-0.646L0.935,4.607
		c-0.268-0.085-0.562,0.066-0.643,0.34C0.207,5.221,0.358,5.509,0.631,5.594l0.988,0.31C1.887,5.984,2.175,5.838,2.261,5.564z"/>
	
		<linearGradient id="XMLID_7_" gradientUnits="userSpaceOnUse" x1="-175.2129" y1="114.8086" x2="-175.2129" y2="113.2925" gradientTransform="matrix(1.1099 0.3462 0.3462 -1.1099 159.04 189.1641)">
		<stop  offset="0" style="stop-color:#FEDA00"/>
		<stop  offset="1" style="stop-color:#E7A423"/>
	</linearGradient>
	<path id="XMLID_489_" fill="url(#XMLID_7_)" d="M3.583,1.004C3.33,1.137,3.233,1.449,3.365,1.702l0.482,0.917
		C3.977,2.87,4.292,2.968,4.544,2.836c0.253-0.132,0.349-0.445,0.218-0.697L4.28,1.221C4.143,0.967,3.834,0.868,3.583,1.004z"/>
	
		<linearGradient id="XMLID_8_" gradientUnits="userSpaceOnUse" x1="-168.3062" y1="107.9004" x2="-168.3062" y2="106.3832" gradientTransform="matrix(1.1099 0.3462 0.3462 -1.1099 159.04 189.1641)">
		<stop  offset="0" style="stop-color:#FEDA00"/>
		<stop  offset="1" style="stop-color:#E7A423"/>
	</linearGradient>
	<path id="XMLID_477_" fill="url(#XMLID_8_)" d="M8.857,11.062c-0.254,0.132-0.349,0.444-0.217,0.698l0.48,0.918
		c0.132,0.251,0.444,0.349,0.698,0.217c0.252-0.132,0.351-0.447,0.217-0.7l-0.479-0.915C9.424,11.025,9.109,10.93,8.857,11.062z"/>
	
		<linearGradient id="XMLID_9_" gradientUnits="userSpaceOnUse" x1="-171.7603" y1="106.5986" x2="-171.7603" y2="104.8231" gradientTransform="matrix(1.1099 0.3462 0.3462 -1.1099 159.04 189.1641)">
		<stop  offset="0" style="stop-color:#FEDA00"/>
		<stop  offset="1" style="stop-color:#E7A423"/>
	</linearGradient>
	<path id="XMLID_475_" fill="url(#XMLID_9_)" d="M4.702,13.354c0.273,0.086,0.562-0.067,0.647-0.335l0.309-0.99
		c0.086-0.274-0.066-0.563-0.339-0.647c-0.272-0.087-0.561,0.064-0.647,0.339l-0.31,0.986C4.276,12.98,4.427,13.268,4.702,13.354z"
		/>
	
		<linearGradient id="XMLID_10_" gradientUnits="userSpaceOnUse" x1="-171.7603" y1="116.3701" x2="-171.7603" y2="114.5936" gradientTransform="matrix(1.1099 0.3462 0.3462 -1.1099 159.04 189.1641)">
		<stop  offset="0" style="stop-color:#FEDA00"/>
		<stop  offset="1" style="stop-color:#E7A423"/>
	</linearGradient>
	<path id="XMLID_474_" fill="url(#XMLID_10_)" d="M8.082,2.513c0.273,0.086,0.563-0.066,0.648-0.34l0.309-0.986
		c0.086-0.273-0.065-0.562-0.34-0.648C8.426,0.453,8.137,0.604,8.052,0.877L7.743,1.865C7.657,2.139,7.808,2.426,8.082,2.513z"/>
	<path id="XMLID_470_" opacity="0.5" fill="#D58128" enable-background="new    " d="M6.507,11.228
		c1.119,0.037,2.416-0.369,3.184-1.214c-0.819,0.418-1.892,0.912-3.123,0.87c-1.229-0.041-1.887-0.323-2.57-0.628
		C4.564,10.723,5.375,11.193,6.507,11.228z"/>
	<path id="XMLID_469_" opacity="0.2" fill="#D58128" enable-background="new    " d="M6.889,2.579
		C5.779,2.544,4.498,2.947,3.74,3.792c0.809-0.419,1.872-0.911,3.092-0.875c1.22,0.042,1.862,0.325,2.541,0.627
		C8.806,3.084,8.012,2.613,6.889,2.579z"/>
</g>
<g id="XMLID_78_">
	<path id="XMLID_637_" fill="#BEC6D2" d="M13.076,9.513c-0.377,0-0.74,0.07-1.074,0.191C11.256,8.402,9.754,7.501,8,7.501
		c-1.753,0-3.257,0.901-4.002,2.203C3.667,9.583,3.306,9.513,2.925,9.513c-1.558,0-2.821,1.126-2.821,2.516
		c0,1.387,1.264,2.516,2.821,2.516c0.604,0,1.162-0.171,1.621-0.462c0.827,0.89,2.059,1.469,3.455,1.469
		c1.394,0,2.626-0.579,3.456-1.469c0.457,0.288,1.018,0.462,1.62,0.462c1.557,0,2.82-1.129,2.82-2.516
		C15.896,10.639,14.633,9.513,13.076,9.513z"/>
	<path id="XMLID_636_" opacity="0.05" fill="#A7A9AC" enable-background="new    " d="M8.372,11.688
		c-3.037-0.274-5.884,0.104-8.132,0.948c0.281,1.127,1.404,1.968,2.751,1.968c0.603,0,1.162-0.17,1.62-0.461
		c0.828,0.891,2.06,1.47,3.456,1.47c1.397,0,2.628-0.579,3.454-1.47c0.459,0.287,1.019,0.461,1.622,0.461
		c0.902,0,1.706-0.378,2.224-0.97C13.453,12.637,11.041,11.928,8.372,11.688z"/>
	<path id="XMLID_635_" fill="#D3DEE2" d="M13.076,9.914c-0.377,0-0.74,0.072-1.074,0.192C11.253,8.806,9.754,7.904,8,7.904
		c-1.753,0-3.257,0.902-4.002,2.202c-0.332-0.12-0.692-0.192-1.073-0.192c-1.558,0-2.821,1.128-2.821,2.517
		c0,1.39,1.264,2.515,2.821,2.515c0.604,0,1.162-0.17,1.621-0.46c0.827,0.89,2.059,1.466,3.455,1.466
		c1.394,0,2.626-0.576,3.456-1.466c0.457,0.287,1.018,0.46,1.62,0.46c1.557,0,2.82-1.125,2.82-2.515
		C15.896,11.042,14.633,9.914,13.076,9.914z"/>
	<path id="XMLID_541_" fill="#BEC6D2" d="M4.848,11.487c0.236,0,0.458,0.043,0.663,0.119c0.461-0.807,1.391-1.361,2.474-1.361
		c1.084,0,2.011,0.557,2.474,1.361c0.206-0.076,0.429-0.119,0.662-0.119c0.881,0,1.608,0.584,1.725,1.341
		c0.01-0.07,0.019-0.141,0.019-0.212c0-0.859-0.779-1.554-1.743-1.554c-0.233,0-0.456,0.041-0.662,0.119
		C9.996,10.374,9.069,9.82,7.985,9.82c-1.083,0-2.013,0.557-2.474,1.361c-0.205-0.078-0.427-0.119-0.663-0.119
		c-0.964,0-1.744,0.694-1.744,1.554c0,0.074,0.006,0.145,0.019,0.212C3.237,12.071,3.964,11.487,4.848,11.487z"/>
</g>
</svg>
